# File created by Blade
# Date/Time:  Tue Sep 30 19:07:05 2014
#---------------------------------------------------------
:version 1.10
:name HOM
:units
  mass 1.0
  length 1.000000
  angle deg
:documentation
     Acclaim Skeleton File
:root
   axis xyz
   order TX TY TZ RX RY RZ
   position 0.000000 0.000000 0.000000
   orientation 0 0 0
:bonedata
   begin
      id 1
      name Spine_dum
      direction 0.000000 1.000000 0.000000
      length 7.508948
      axis 0.0 0.0 0.0 xyz
   end
   begin
      id 2
      name LeftUpLeg_dum
      direction 1.000000 0.000000 0.000000
      length 3.000560
      axis 0.0 0.0 0.0 xyz
   end
   begin
      id 3
      name RightUpLeg_dum
      direction -1.000000 0.000000 0.000000
      length 3.000560
      axis 0.0 0.0 0.0 xyz
   end
   begin
      id 4
      name Spine
      direction 0.000000 1.000000 0.000000
      length 0.000000
      axis 0.0 0.0 0.0 xyz
      dof rx ry rz
   end
   begin
      id 5
      name Spine_dum1
      direction 0.000000 1.000000 0.000000
      length 13.861154
      axis 0.0 0.0 0.0 xyz
   end
   begin
      id 6
      name Spine_dum2
      direction 0.000000 1.000000 0.000000
      length 8.204781
      axis 0.0 0.0 0.0 xyz
   end
   begin
      id 7
      name Spine_dum3
      direction 0.000000 1.000000 0.000000
      length 8.204781
      axis 0.0 0.0 0.0 xyz
   end
   begin
      id 8
      name Head
      direction 0.000000 1.000000 0.000000
      length 4.527550
      axis 0.0 0.0 0.0 xyz
      dof rx ry rz
   end
   begin
      id 9
      name LeftShoulder
      direction 1.000000 0.000000 0.000000
      length 6.635956
      axis 0.0 0.0 -90.0 xyz
      dof rx ry rz
   end
   begin
      id 10
      name LeftArm
      direction 1.000000 0.000000 0.000000
      length 10.274218
      axis 0.0 0.0 -90.0 xyz
      dof rx ry rz
   end
   begin
      id 11
      name LeftForeArm
      direction 1.000000 0.000000 0.000000
      length 8.522147
      axis 0.0 0.0 -90.0 xyz
      dof ry rz rx
   end
   begin
      id 12
      name LeftHand
      direction 0.000000 0.000000 0.000000
      length 0.000000
      axis 0.0 0.0 -90.0 xyz
      dof rx ry rz
   end
   begin
      id 13
      name LeftHand_dum1
      direction 0.000000 0.000000 0.000000
      length 0.000000
      axis 0.0 0.0 -90.0 xyz
   end
   begin
      id 14
      name LeftHand_dum2
      direction 1.000000 0.000000 0.000000
      length 3.937000
      axis 0.0 0.0 -90.0 xyz
   end
   begin
      id 15
      name LeftHandThumb1
      direction 0.000000 0.000000 1.000000
      length 3.937000
      axis 0.0 0.0 -90.0 xyz
      dof rx rz ry
   end
   begin
      id 16
      name RightShoulder
      direction -1.000000 0.000000 0.000000
      length 6.635956
      axis 0.0 0.0 90.0 xyz
      dof rx ry rz
   end
   begin
      id 17
      name RightArm
      direction -1.000000 0.000000 0.000000
      length 10.274218
      axis 0.0 0.0 90.0 xyz
      dof rx ry rz
   end
   begin
      id 18
      name RightForeArm
      direction -1.000000 0.000000 0.000000
      length 8.522147
      axis 0.0 0.0 90.0 xyz
      dof ry rz rx
   end
   begin
      id 19
      name RightHand
      direction 0.000000 0.000000 0.000000
      length 0.000000
      axis 0.0 0.0 90.0 xyz
      dof rx ry rz
   end
   begin
      id 20
      name RightHand_dum1
      direction 0.000000 0.000000 0.000000
      length 0.000000
      axis 0.0 0.0 90.0 xyz
   end
   begin
      id 21
      name RightHand_dum2
      direction -1.000000 0.000000 0.000000
      length 3.937000
      axis 0.0 0.0 90.0 xyz
   end
   begin
      id 22
      name RightHandThumb1
      direction 0.000000 0.000000 1.000000
      length 3.937000
      axis 0.0 0.0 90.0 xyz
      dof rx rz ry
   end
   begin
      id 23
      name LeftUpLeg
      direction 0.000000 -1.000000 0.000000
      length 16.490845
      axis 0.0 0.0 0.0 xyz
      dof rx ry rz
   end
   begin
      id 24
      name LeftLeg
      direction 0.000000 -1.000000 0.000000
      length 14.556576
      axis 0.0 0.0 0.0 xyz
      dof rx ry rz
   end
   begin
      id 25
      name LeftFoot
      direction 0.000000 -0.258819 0.965926
      length 4.831116
      axis 15.0 0.0 0.0 xyz
      dof rx ry rz
   end
   begin
      id 26
      name LeftToeBase
      direction 0.000000 0.000000 1.000000
      length 2.952750
      axis 0.0 0.0 0.0 xyz
      dof rx ry rz
   end
   begin
      id 27
      name RightUpLeg
      direction 0.000000 -1.000000 0.000000
      length 16.490845
      axis 0.0 0.0 0.0 xyz
      dof rx ry rz
   end
   begin
      id 28
      name RightLeg
      direction 0.000000 -1.000000 0.000000
      length 14.556576
      axis 0.0 0.0 0.0 xyz
      dof rx ry rz
   end
   begin
      id 29
      name RightFoot
      direction 0.000000 -0.258819 0.965926
      length 4.831116
      axis 15.0 0.0 0.0 xyz
      dof rx ry rz
   end
   begin
      id 30
      name RightToeBase
      direction 0.000000 0.000000 1.000000
      length 2.952750
      axis 0.0 0.0 0.0 xyz
      dof rx ry rz
   end
:hierarchy
   begin
      root Spine_dum LeftUpLeg_dum RightUpLeg_dum
      Spine_dum Spine
      LeftUpLeg_dum LeftUpLeg
      RightUpLeg_dum RightUpLeg
      Spine Spine_dum1 Spine_dum2 Spine_dum3
      Spine_dum1 Head
      Spine_dum2 LeftShoulder
      Spine_dum3 RightShoulder
      LeftShoulder LeftArm
      LeftArm LeftForeArm
      LeftForeArm LeftHand
      LeftHand LeftHand_dum1 LeftHand_dum2
      LeftHand_dum1 LeftHandThumb1
      RightShoulder RightArm
      RightArm RightForeArm
      RightForeArm RightHand
      RightHand RightHand_dum1 RightHand_dum2
      RightHand_dum1 RightHandThumb1
      LeftUpLeg LeftLeg
      LeftLeg LeftFoot
      LeftFoot LeftToeBase
      RightUpLeg RightLeg
      RightLeg RightFoot
      RightFoot RightToeBase
   end

# File created by Blade
# Date/Time:  Thu Sep 25 19:26:26 2014
# Frame Rate: 120.000 fps
#------------------------------------------------------
:FULLY-SPECIFIED
:DEGREES
1
root -3.905833 32.798224 -7.173872 14.097050 0.343211 5.341020
Spine -11.562452 4.760508 -2.321411
Head -11.361202 -2.243714 -1.023381
LeftShoulder -15.659911 18.943994 22.781754
LeftArm 19.321970 -22.326351 -37.242660
LeftForeArm 12.042884 -0.000000 12.601940
LeftHand -27.753958 -0.000000 -10.026183
LeftHandThumb1 -26.253704 0.000000 33.147579
RightShoulder -19.029240 14.257978 -40.130017
RightArm -6.784229 7.062474 31.377497
RightForeArm -27.189904 -0.000000 15.046121
RightHand -10.662113 -0.000000 5.582678
RightHandThumb1 -24.326973 -0.000000 -32.862282
LeftUpLeg -13.351699 6.813237 4.634302
LeftLeg 7.333288 -0.000000 -0.000000
LeftFoot -2.242399 -12.968253 -35.356125
LeftToeBase 5.176191 -0.000000 -0.000000
RightUpLeg -8.734142 -12.784494 -14.769439
RightLeg -0.516532 -0.000000 0.000000
RightFoot -4.433248 -11.784631 11.490555
RightToeBase 1.259816 -0.000000 -0.000000
2
root -3.979021 32.807473 -7.210279 14.207269 0.495756 5.327375
Spine -11.529681 4.694821 -2.207305
Head -11.536193 -2.217997 -0.837516
LeftShoulder -15.622851 18.937185 22.811945
LeftArm 19.261291 -22.429090 -37.351961
LeftForeArm 12.124507 -0.000000 12.655904
LeftHand -27.724926 -0.000000 -10.017372
LeftHandThumb1 -26.253704 0.000000 33.147579
RightShoulder -19.004314 14.307915 -40.018286
RightArm -6.803863 7.144971 31.423344
RightForeArm -27.249727 -0.000000 15.118398
RightHand -10.545926 -0.000000 5.719320
RightHandThumb1 -24.326973 -0.000000 -32.862282
LeftUpLeg -13.881554 6.636810 5.131522
LeftLeg 8.157756 -0.000000 -0.000000
LeftFoot -1.133648 -14.721357 -35.697529
LeftToeBase 3.505816 -0.000000 -0.000000
RightUpLeg -8.827274 -12.851789 -14.575019
RightLeg -0.587227 -0.000000 0.000000
RightFoot -4.450342 -11.885028 11.355359
RightToeBase 1.198352 -0.000000 -0.000000
3
root -4.045402 32.814644 -7.248842 14.307395 0.642895 5.309271
Spine -11.470963 4.698728 -2.100939
Head -11.757051 -2.248289 -0.633113
LeftShoulder -15.498354 18.807558 22.891284
LeftArm 19.095822 -22.341136 -37.337847
LeftForeArm 12.087290 -0.000000 12.680567
LeftHand -27.616607 0.000000 -9.896514
LeftHandThumb1 -26.253704 0.000000 33.147579
RightShoulder -19.050482 14.313200 -39.978571
RightArm -6.821501 7.203379 31.551437
RightForeArm -27.333694 -0.000000 15.163810
RightHand -10.464251 0.000000 5.678419
RightHandThumb1 -24.326973 -0.000000 -32.862282
LeftUpLeg -14.409475 6.486211 5.621555
LeftLeg 8.963307 -0.000000 -0.000000
LeftFoot -0.015065 -16.340482 -36.172831
LeftToeBase 1.903840 -0.000000 -0.000000
RightUpLeg -8.918892 -12.968662 -14.380759
RightLeg -0.638012 -0.000000 0.000000
RightFoot -4.435116 -11.876988 11.144148
RightToeBase 1.108644 -0.000000 -0.000000
4
root -4.106890 32.819731 -7.287384 14.414392 0.714122 5.267337
Spine -11.422021 4.737150 -2.000811
Head -11.977611 -2.294240 -0.379554
LeftShoulder -15.435803 18.785486 22.934230
LeftArm 19.001847 -22.418254 -37.357234
LeftForeArm 12.091117 -0.000000 12.806785
LeftHand -27.804667 -0.000000 -9.781336
LeftHandThumb1 -26.253704 0.000000 33.147579
RightShoulder -19.085951 14.447074 -39.943100
RightArm -6.884882 7.145159 31.672098
RightForeArm -27.363309 0.000000 15.219882
RightHand -10.433825 -0.000000 5.645035
RightHandThumb1 -24.326973 -0.000000 -32.862282
LeftUpLeg -14.921910 6.374547 6.126271
LeftLeg 9.759617 -0.000000 -0.000000
LeftFoot 0.830697 -17.680325 -36.679878
LeftToeBase 1.585067 -0.000000 -0.000000
RightUpLeg -9.047493 -13.011043 -14.189849
RightLeg -0.698630 -0.000000 0.000000
RightFoot -4.421867 -11.885081 11.046421
RightToeBase 1.168491 -0.000000 -0.000000
5
root -4.158894 32.822179 -7.323112 14.510723 0.740789 5.176181
Spine -11.383566 4.828966 -1.820591
Head -12.170846 -2.312990 -0.258207
LeftShoulder -15.419173 18.809008 22.943084
LeftArm 18.989681 -22.511405 -37.412169
LeftForeArm 12.142030 -0.000000 12.884651
LeftHand -27.781719 0.000000 -9.573022
LeftHandThumb1 -26.253704 0.000000 33.147579
RightShoulder -19.069871 14.362794 -39.893174
RightArm -6.830157 7.252296 31.846628
RightForeArm -27.373463 -0.000000 15.241235
RightHand -10.325266 -0.000000 5.637318
RightHandThumb1 -24.326973 -0.000000 -32.862282
LeftUpLeg -15.376286 6.243479 6.661042
LeftLeg 10.487515 -0.000000 -0.000000
LeftFoot 1.057589 -18.570380 -36.107991
LeftToeBase 0.928190 -0.000000 -0.000000
RightUpLeg -9.180531 -13.110579 -13.965084
RightLeg -0.780289 -0.000000 0.000000
RightFoot -4.416638 -11.811248 11.060785
RightToeBase 1.252059 -0.000000 -0.000000
6
root -4.204718 32.823363 -7.356391 14.601658 0.748535 5.068809
Spine -11.354101 4.936815 -1.644156
Head -12.350892 -2.369108 -0.053750
LeftShoulder -15.405275 18.841633 22.938685
LeftArm 19.003296 -22.544923 -37.362194
LeftForeArm 12.064679 -0.000000 12.869472
LeftHand -27.624201 -0.000000 -9.348356
LeftHandThumb1 -26.253704 0.000000 33.147579
RightShoulder -19.044838 14.377731 -39.806768
RightArm -6.814561 7.198736 31.947629
RightForeArm -27.282506 0.000000 15.259618
RightHand -10.304754 0.000000 5.647921
RightHandThumb1 -24.326973 -0.000000 -32.862282
LeftUpLeg -15.801001 6.023129 7.229366
LeftLeg 11.222951 -0.000000 -0.000000
LeftFoot 0.621402 -18.854648 -35.366624
LeftToeBase 1.096500 -0.000000 -0.000000
RightUpLeg -9.325183 -13.190298 -13.737405
RightLeg -0.814821 -0.000000 0.000000
RightFoot -4.405103 -11.682346 11.020318
RightToeBase 1.271997 -0.000000 -0.000000
